<svg width="658" height="156" viewBox="0 0 658 156" fill="none" xmlns="http://www.w3.org/2000/svg">
<g clip-path="url(#clip0_5578_410)">
<path d="M101.109 0H50.5532V68.789L75.8309 51.8152V25.3138H101.109V156C115.069 156 126.386 144.666 126.386 130.686V25.3138C126.386 11.3338 115.069 0 101.109 0Z" fill="white"/>
<path d="M50.5554 130.686H25.2777V0C11.3176 0 0 11.3338 0 25.3138V130.686C0 144.666 11.3176 156 25.2777 156H75.8331V82.291L50.5554 99.2648V130.686Z" fill="#2FAE9B"/>
</g>
<path d="M614.765 119.155C611.691 119.155 608.54 119.155 605.312 119.155C602.084 119.155 598.895 119.155 595.744 119.155C595.744 105.245 595.744 91.2189 595.744 77.0777C595.744 62.9365 595.744 48.9106 595.744 35C598.895 35 602.084 35 605.312 35C608.54 35 611.691 35 614.765 35C614.765 39.6113 614.765 44.2609 614.765 48.949C614.765 53.6371 614.765 58.2868 614.765 62.8981C616.686 61.361 618.877 60.1698 621.336 59.3244C623.795 58.4021 626.408 57.941 629.175 57.941C633.018 57.941 636.669 58.7095 640.127 60.2466C643.585 61.7068 646.621 63.8203 649.234 66.5871C651.924 69.3538 653.999 72.6586 655.459 76.5013C656.996 80.344 657.765 84.6094 657.765 89.2975C657.765 93.9088 656.996 98.1358 655.459 101.978C653.999 105.821 651.924 109.164 649.234 112.008C646.621 114.775 643.585 116.927 640.127 118.464C636.669 120.001 632.98 120.769 629.06 120.769C626.293 120.769 623.68 120.308 621.221 119.386C618.838 118.541 616.686 117.311 614.765 115.697C614.765 116.235 614.765 116.811 614.765 117.426C614.765 117.964 614.765 118.541 614.765 119.155ZM626.524 103.938C630.29 103.938 633.249 102.632 635.4 100.019C637.629 97.3288 638.744 93.7551 638.744 89.2975C638.744 84.84 637.629 81.3047 635.4 78.6916C633.249 76.0786 630.29 74.7721 626.524 74.7721C622.835 74.7721 619.876 76.117 617.647 78.8069C615.418 81.42 614.304 84.9168 614.304 89.2975C614.304 93.6782 615.418 97.2135 617.647 99.9034C619.876 102.593 622.835 103.938 626.524 103.938Z" fill="white"/>
<path d="M582.512 59.5547C582.512 69.392 582.512 79.3447 582.512 89.4126C582.512 99.4036 582.512 109.318 582.512 119.155C579.438 119.155 576.287 119.155 573.059 119.155C569.831 119.155 566.642 119.155 563.491 119.155C563.491 118.617 563.491 118.118 563.491 117.656C563.491 117.195 563.491 116.696 563.491 116.158C561.416 117.618 559.072 118.732 556.459 119.501C553.923 120.346 551.156 120.769 548.158 120.769C543.778 120.769 539.897 119.77 536.515 117.772C533.21 115.774 530.597 112.892 528.676 109.126C526.831 105.36 525.909 100.902 525.909 95.753C525.909 89.7584 525.909 83.7253 525.909 77.6539C525.909 71.5824 525.909 65.5493 525.909 59.5547C529.06 59.5547 532.25 59.5547 535.478 59.5547C538.705 59.5547 541.856 59.5547 544.931 59.5547C544.931 65.0882 544.931 70.6985 544.931 76.3858C544.931 82.073 544.931 87.6833 544.931 93.2168C544.931 96.291 545.622 98.7888 547.006 100.71C548.466 102.555 550.733 103.477 553.807 103.477C556.881 103.477 559.264 102.593 560.955 100.825C562.646 99.0578 563.491 96.5216 563.491 93.2168C563.491 87.6833 563.491 82.073 563.491 76.3858C563.491 70.6985 563.491 65.0882 563.491 59.5547C566.642 59.5547 569.831 59.5547 573.059 59.5547C576.287 59.5547 579.438 59.5547 582.512 59.5547Z" fill="white"/>
<path d="M468.227 119.156C464.922 119.156 461.579 119.156 458.198 119.156C454.816 119.156 451.434 119.156 448.053 119.156C448.053 106.244 448.053 93.1792 448.053 79.9603C448.053 66.7414 448.053 53.6762 448.053 40.7646C451.434 40.7646 454.816 40.7646 458.198 40.7646C461.579 40.7646 464.922 40.7646 468.227 40.7646C468.227 45.4528 468.227 50.1793 468.227 54.9443C468.227 59.6324 468.227 64.3205 468.227 69.0086C472.3 69.0086 476.412 69.0086 480.562 69.0086C484.712 69.0086 488.786 69.0086 492.782 69.0086C492.782 64.3205 492.782 59.6324 492.782 54.9443C492.782 50.1793 492.782 45.4528 492.782 40.7646C496.164 40.7646 499.545 40.7646 502.927 40.7646C506.308 40.7646 509.651 40.7646 512.956 40.7646C512.956 53.6762 512.956 66.7414 512.956 79.9603C512.956 93.1792 512.956 106.244 512.956 119.156C509.651 119.156 506.308 119.156 502.927 119.156C499.545 119.156 496.164 119.156 492.782 119.156C492.782 113.93 492.782 108.665 492.782 103.362C492.782 97.9826 492.782 92.7181 492.782 87.5689C488.786 87.5689 484.712 87.5689 480.562 87.5689C476.412 87.5689 472.3 87.5689 468.227 87.5689C468.227 92.7181 468.227 97.9826 468.227 103.362C468.227 108.665 468.227 113.93 468.227 119.156Z" fill="white"/>
<path d="M401.418 119.156C401.418 109.319 401.418 99.4046 401.418 89.4135C401.418 79.3456 401.418 69.393 401.418 59.5556C404.569 59.5556 407.758 59.5556 410.986 59.5556C414.214 59.5556 417.365 59.5556 420.439 59.5556C420.439 60.0936 420.439 60.6316 420.439 61.1696C420.439 61.7076 420.439 62.2455 420.439 62.7835C422.822 61.0927 425.512 59.8246 428.509 58.9792C431.506 58.1338 434.773 57.9033 438.308 58.2876C438.308 61.3617 438.308 64.4743 438.308 67.6253C438.308 70.7764 438.308 73.889 438.308 76.9631C432.237 76.1177 427.741 76.6557 424.82 78.5771C421.9 80.4216 420.439 83.4573 420.439 87.6843C420.439 92.8335 420.439 98.0596 420.439 103.363C420.439 108.666 420.439 113.93 420.439 119.156C417.365 119.156 414.214 119.156 410.986 119.156C407.758 119.156 404.569 119.156 401.418 119.156Z" fill="white"/>
<path d="M387.309 116.389C382.006 118.618 376.742 120.001 371.516 120.539C366.29 121.077 361.333 120.77 356.644 119.617C352.033 118.541 347.922 116.658 344.309 113.968C340.697 111.278 337.854 107.858 335.779 103.708C333.78 99.5581 332.781 94.7547 332.781 89.298C332.781 84.7636 333.511 80.6135 334.972 76.8476C336.509 73.0049 338.661 69.6618 341.427 66.8182C344.194 63.8977 347.46 61.6689 351.226 60.1318C354.992 58.5179 359.104 57.7109 363.561 57.7109C367.558 57.7109 371.17 58.3642 374.398 59.6707C377.626 60.9772 380.431 62.8217 382.813 65.2042C385.196 67.5099 387.117 70.2766 388.577 73.5045C390.038 76.7324 390.96 80.2677 391.344 84.1104C391.728 87.9531 391.498 92.0264 390.653 96.3302C384.35 96.3302 378.01 96.3302 371.631 96.3302C365.252 96.3302 358.912 96.3302 352.61 96.3302C354.07 99.2507 356.491 101.326 359.872 102.555C363.331 103.785 367.404 104.169 372.092 103.708C376.857 103.247 381.93 102.017 387.309 100.019C387.309 102.709 387.309 105.437 387.309 108.204C387.309 110.971 387.309 113.699 387.309 116.389ZM363.1 74.7726C360.871 74.7726 358.796 75.3874 356.875 76.6171C355.031 77.8468 353.609 79.7297 352.61 82.2659C356.068 82.2659 359.527 82.2659 362.985 82.2659C366.52 82.2659 370.017 82.2659 373.476 82.2659C372.553 79.6528 371.17 77.7699 369.325 76.6171C367.558 75.3874 365.483 74.7726 363.1 74.7726Z" fill="white"/>
<path d="M288.597 119.155C285.215 109.318 281.757 99.4036 278.222 89.4126C274.763 79.3447 271.343 69.392 267.962 59.5547C271.266 59.5547 274.571 59.5547 277.876 59.5547C281.257 59.5547 284.601 59.5547 287.905 59.5547C289.904 65.6262 291.902 71.7361 293.9 77.8844C295.975 83.9559 297.973 90.0274 299.895 96.0989C301.893 90.0274 303.891 83.9559 305.889 77.8844C307.887 71.7361 309.847 65.6262 311.769 59.5547C314.996 59.5547 318.263 59.5547 321.567 59.5547C324.872 59.5547 328.139 59.5547 331.366 59.5547C327.985 69.392 324.526 79.3447 320.991 89.4126C317.533 99.4036 314.113 109.318 310.731 119.155C307.119 119.155 303.43 119.155 299.664 119.155C295.898 119.155 292.209 119.155 288.597 119.155Z" fill="white"/>
<path d="M261.896 116.389C256.593 118.618 251.329 120.001 246.102 120.539C240.876 121.077 235.919 120.77 231.231 119.617C226.62 118.541 222.508 116.658 218.896 113.968C215.284 111.278 212.44 107.858 210.365 103.708C208.367 99.5581 207.368 94.7547 207.368 89.298C207.368 84.7636 208.098 80.6135 209.558 76.8476C211.095 73.0049 213.247 69.6618 216.014 66.8182C218.781 63.8977 222.047 61.6689 225.813 60.1318C229.579 58.5179 233.69 57.7109 238.148 57.7109C242.144 57.7109 245.757 58.3642 248.984 59.6707C252.212 60.9772 255.018 62.8217 257.4 65.2042C259.783 67.5099 261.704 70.2766 263.164 73.5045C264.624 76.7324 265.547 80.2677 265.931 84.1104C266.315 87.9531 266.085 92.0264 265.239 96.3302C258.937 96.3302 252.597 96.3302 246.218 96.3302C239.839 96.3302 233.498 96.3302 227.196 96.3302C228.657 99.2507 231.077 101.326 234.459 102.555C237.917 103.785 241.991 104.169 246.679 103.708C251.444 103.247 256.516 102.017 261.896 100.019C261.896 102.709 261.896 105.437 261.896 108.204C261.896 110.971 261.896 113.699 261.896 116.389ZM237.687 74.7726C235.458 74.7726 233.383 75.3874 231.462 76.6171C229.617 77.8468 228.195 79.7297 227.196 82.2659C230.655 82.2659 234.113 82.2659 237.572 82.2659C241.107 82.2659 244.604 82.2659 248.062 82.2659C247.14 79.6528 245.757 77.7699 243.912 76.6171C242.144 75.3874 240.069 74.7726 237.687 74.7726Z" fill="white"/>
<path d="M157.147 119.156C157.147 106.244 157.147 93.1792 157.147 79.9603C157.147 66.7414 157.147 53.6762 157.147 40.7646C160.529 40.7646 163.911 40.7646 167.292 40.7646C170.674 40.7646 174.017 40.7646 177.322 40.7646C177.322 50.6788 177.322 60.7083 177.322 70.8531C177.322 80.921 177.322 90.912 177.322 100.826C181.395 100.826 185.507 100.826 189.657 100.826C193.807 100.826 197.88 100.826 201.877 100.826C201.877 103.824 201.877 106.898 201.877 110.049C201.877 113.123 201.877 116.159 201.877 119.156C194.499 119.156 187.044 119.156 179.512 119.156C171.98 119.156 164.525 119.156 157.147 119.156Z" fill="white"/>
<defs>
<clipPath id="clip0_5578_410">
<rect width="126.386" height="156" fill="white"/>
</clipPath>
</defs>
</svg>
